<svg width="16" height="16" viewBox="0 0 16 16" fill="none" xmlns="http://www.w3.org/2000/svg">
<g id="Verified tick" clip-path="url(#clip0_1_3473)">
<path id="Vector" d="M12.3555 2.83357C12.5074 3.20109 12.7991 3.49321 13.1664 3.64573L14.4543 4.17919C14.8218 4.33143 15.1138 4.62344 15.2661 4.99098C15.4183 5.35852 15.4183 5.77149 15.2661 6.13903L14.733 7.42599C14.5807 7.7937 14.5805 8.20708 14.7335 8.57461L15.2656 9.86119C15.3411 10.0432 15.38 10.2384 15.38 10.4354C15.38 10.6325 15.3412 10.8276 15.2658 11.0097C15.1904 11.1918 15.0799 11.3572 14.9405 11.4965C14.8011 11.6358 14.6357 11.7463 14.4536 11.8217L13.1666 12.3547C12.7991 12.5067 12.507 12.7984 12.3545 13.1657L11.821 14.4536C11.6688 14.8211 11.3768 15.1131 11.0092 15.2654C10.6417 15.4176 10.2287 15.4176 9.86116 15.2654L8.5742 14.7323C8.20665 14.5804 7.79383 14.5807 7.4265 14.7331L6.13862 15.2658C5.77128 15.4177 5.35867 15.4176 4.99143 15.2655C4.62419 15.1134 4.33234 14.8217 4.17999 14.4545L3.64637 13.1663C3.49441 12.7988 3.20273 12.5066 2.83544 12.3541L1.54755 11.8207C1.18017 11.6685 0.888247 11.3767 0.73595 11.0093C0.583653 10.642 0.583446 10.2292 0.735376 9.86175L1.26845 8.57478C1.42032 8.20723 1.42001 7.79441 1.26759 7.42709L0.735278 6.13828C0.659807 5.95624 0.620946 5.76111 0.620914 5.56405C0.620882 5.36698 0.659681 5.17184 0.735094 4.98978C0.810507 4.80772 0.921056 4.6423 1.06042 4.50298C1.19979 4.36365 1.36525 4.25316 1.54733 4.1778L2.8343 3.64472C3.20149 3.4929 3.49344 3.20158 3.64607 2.83472L4.17953 1.54683C4.33177 1.17929 4.62378 0.887276 4.99132 0.735035C5.35886 0.582794 5.77183 0.582794 6.13937 0.735035L7.42634 1.26811C7.79389 1.41998 8.20671 1.41967 8.57403 1.26725L9.86246 0.735862C10.23 0.583706 10.6428 0.583738 11.0103 0.735948C11.3778 0.888159 11.6697 1.18009 11.822 1.54753L12.3556 2.8358L12.3555 2.83357Z" fill="#1570EF"/>
<path id="Vector_2" fill-rule="evenodd" clip-rule="evenodd" d="M11.1333 5.90291C11.2401 5.73503 11.276 5.53157 11.2328 5.33728C11.1897 5.14299 11.0711 4.9738 10.9033 4.86691C10.7354 4.76003 10.5319 4.72422 10.3376 4.76735C10.1433 4.81048 9.97414 4.92903 9.86726 5.09691L6.93026 9.71191L5.58626 8.03191C5.46201 7.8765 5.2811 7.7768 5.08335 7.75477C4.88559 7.73273 4.68718 7.79016 4.53176 7.91441C4.37634 8.03867 4.27665 8.21957 4.25462 8.41733C4.23258 8.61508 4.29001 8.8135 4.41426 8.96891L6.41426 11.4689C6.4888 11.5622 6.58453 11.6363 6.6935 11.6852C6.80246 11.734 6.92152 11.7561 7.04075 11.7497C7.15998 11.7432 7.27595 11.7084 7.37901 11.6481C7.48207 11.5877 7.56923 11.5037 7.63326 11.4029L11.1333 5.90291Z" fill="white"/>
</g>
<defs>
<clipPath id="clip0_1_3473">
<rect width="16" height="16" fill="white"/>
</clipPath>
</defs>
</svg>
